<mxfile host="app.diagrams.net" agent="Mozilla/5.0 (Windows NT 10.0; Win64; x64) AppleWebKit/537.36 (KHTML, like Gecko) Chrome/128.0.0.0 Safari/537.36" version="24.7.14">
  <diagram name="Página-1" id="bamVa_0NoXlc-tf__FN4">
    <mxGraphModel grid="1" page="1" gridSize="10" guides="1" tooltips="1" connect="1" arrows="1" fold="1" pageScale="1" pageWidth="827" pageHeight="1169" math="0" shadow="0">
      <root>
        <mxCell id="0" />
        <mxCell id="1" parent="0" />
        <mxCell id="87OqCBBtjAjnsFlcotj2-33" value="" style="shape=table;startSize=0;container=1;collapsible=0;childLayout=tableLayout;" vertex="1" parent="1">
          <mxGeometry x="20" y="50" width="710" height="580" as="geometry" />
        </mxCell>
        <mxCell id="87OqCBBtjAjnsFlcotj2-34" value="" style="shape=tableRow;horizontal=0;startSize=0;swimlaneHead=0;swimlaneBody=0;strokeColor=inherit;top=0;left=0;bottom=0;right=0;collapsible=0;dropTarget=0;fillColor=none;points=[[0,0.5],[1,0.5]];portConstraint=eastwest;" vertex="1" parent="87OqCBBtjAjnsFlcotj2-33">
          <mxGeometry width="710" height="40" as="geometry" />
        </mxCell>
        <mxCell id="87OqCBBtjAjnsFlcotj2-35" value="Usuario" style="shape=partialRectangle;html=1;whiteSpace=wrap;connectable=0;strokeColor=inherit;overflow=hidden;fillColor=none;top=0;left=0;bottom=0;right=0;pointerEvents=1;" vertex="1" parent="87OqCBBtjAjnsFlcotj2-34">
          <mxGeometry width="188" height="40" as="geometry">
            <mxRectangle width="188" height="40" as="alternateBounds" />
          </mxGeometry>
        </mxCell>
        <mxCell id="87OqCBBtjAjnsFlcotj2-36" value="Interfaz" style="shape=partialRectangle;html=1;whiteSpace=wrap;connectable=0;strokeColor=inherit;overflow=hidden;fillColor=none;top=0;left=0;bottom=0;right=0;pointerEvents=1;" vertex="1" parent="87OqCBBtjAjnsFlcotj2-34">
          <mxGeometry x="188" width="198" height="40" as="geometry">
            <mxRectangle width="198" height="40" as="alternateBounds" />
          </mxGeometry>
        </mxCell>
        <mxCell id="87OqCBBtjAjnsFlcotj2-37" value="Capa de Negocios" style="shape=partialRectangle;html=1;whiteSpace=wrap;connectable=0;strokeColor=inherit;overflow=hidden;fillColor=none;top=0;left=0;bottom=0;right=0;pointerEvents=1;" vertex="1" parent="87OqCBBtjAjnsFlcotj2-34">
          <mxGeometry x="386" width="168" height="40" as="geometry">
            <mxRectangle width="168" height="40" as="alternateBounds" />
          </mxGeometry>
        </mxCell>
        <mxCell id="87OqCBBtjAjnsFlcotj2-38" value="Base de datos" style="shape=partialRectangle;html=1;whiteSpace=wrap;connectable=0;strokeColor=inherit;overflow=hidden;fillColor=none;top=0;left=0;bottom=0;right=0;pointerEvents=1;" vertex="1" parent="87OqCBBtjAjnsFlcotj2-34">
          <mxGeometry x="554" width="156" height="40" as="geometry">
            <mxRectangle width="156" height="40" as="alternateBounds" />
          </mxGeometry>
        </mxCell>
        <mxCell id="87OqCBBtjAjnsFlcotj2-39" value="" style="shape=tableRow;horizontal=0;startSize=0;swimlaneHead=0;swimlaneBody=0;strokeColor=inherit;top=0;left=0;bottom=0;right=0;collapsible=0;dropTarget=0;fillColor=none;points=[[0,0.5],[1,0.5]];portConstraint=eastwest;" vertex="1" parent="87OqCBBtjAjnsFlcotj2-33">
          <mxGeometry y="40" width="710" height="540" as="geometry" />
        </mxCell>
        <mxCell id="87OqCBBtjAjnsFlcotj2-40" value="" style="shape=partialRectangle;html=1;whiteSpace=wrap;connectable=0;strokeColor=inherit;overflow=hidden;fillColor=none;top=0;left=0;bottom=0;right=0;pointerEvents=1;" vertex="1" parent="87OqCBBtjAjnsFlcotj2-39">
          <mxGeometry width="188" height="540" as="geometry">
            <mxRectangle width="188" height="540" as="alternateBounds" />
          </mxGeometry>
        </mxCell>
        <mxCell id="87OqCBBtjAjnsFlcotj2-41" value="" style="shape=partialRectangle;html=1;whiteSpace=wrap;connectable=0;strokeColor=inherit;overflow=hidden;fillColor=none;top=0;left=0;bottom=0;right=0;pointerEvents=1;" vertex="1" parent="87OqCBBtjAjnsFlcotj2-39">
          <mxGeometry x="188" width="198" height="540" as="geometry">
            <mxRectangle width="198" height="540" as="alternateBounds" />
          </mxGeometry>
        </mxCell>
        <mxCell id="87OqCBBtjAjnsFlcotj2-42" value="" style="shape=partialRectangle;html=1;whiteSpace=wrap;connectable=0;strokeColor=inherit;overflow=hidden;fillColor=none;top=0;left=0;bottom=0;right=0;pointerEvents=1;" vertex="1" parent="87OqCBBtjAjnsFlcotj2-39">
          <mxGeometry x="386" width="168" height="540" as="geometry">
            <mxRectangle width="168" height="540" as="alternateBounds" />
          </mxGeometry>
        </mxCell>
        <mxCell id="87OqCBBtjAjnsFlcotj2-43" value="" style="shape=partialRectangle;html=1;whiteSpace=wrap;connectable=0;strokeColor=inherit;overflow=hidden;fillColor=none;top=0;left=0;bottom=0;right=0;pointerEvents=1;" vertex="1" parent="87OqCBBtjAjnsFlcotj2-39">
          <mxGeometry x="554" width="156" height="540" as="geometry">
            <mxRectangle width="156" height="540" as="alternateBounds" />
          </mxGeometry>
        </mxCell>
        <mxCell id="87OqCBBtjAjnsFlcotj2-67" value="Recopilar información" style="rounded=1;whiteSpace=wrap;html=1;" vertex="1" parent="87OqCBBtjAjnsFlcotj2-39">
          <mxGeometry x="710" height="540" as="geometry">
            <mxRectangle width="NaN" height="540" as="alternateBounds" />
          </mxGeometry>
        </mxCell>
        <mxCell id="87OqCBBtjAjnsFlcotj2-71" value="Mostrar información" style="rounded=1;whiteSpace=wrap;html=1;" vertex="1" parent="87OqCBBtjAjnsFlcotj2-39">
          <mxGeometry height="540" as="geometry">
            <mxRectangle width="NaN" height="540" as="alternateBounds" />
          </mxGeometry>
        </mxCell>
        <mxCell id="87OqCBBtjAjnsFlcotj2-75" value="Filtrar Información" style="rounded=1;whiteSpace=wrap;html=1;" vertex="1" parent="87OqCBBtjAjnsFlcotj2-39">
          <mxGeometry height="540" as="geometry">
            <mxRectangle width="NaN" height="540" as="alternateBounds" />
          </mxGeometry>
        </mxCell>
        <mxCell id="87OqCBBtjAjnsFlcotj2-80" value="" style="rhombus;whiteSpace=wrap;html=1;rounded=1;" vertex="1" parent="87OqCBBtjAjnsFlcotj2-39">
          <mxGeometry height="540" as="geometry">
            <mxRectangle width="NaN" height="540" as="alternateBounds" />
          </mxGeometry>
        </mxCell>
        <mxCell id="MqVedQMIPtXj0oAbWhY8-12" value="Detiene el modulo" style="rounded=1;whiteSpace=wrap;html=1;" vertex="1" parent="87OqCBBtjAjnsFlcotj2-39">
          <mxGeometry height="540" as="geometry">
            <mxRectangle width="NaN" height="540" as="alternateBounds" />
          </mxGeometry>
        </mxCell>
        <mxCell id="MqVedQMIPtXj0oAbWhY8-16" value="Notifica al usuario" style="rounded=1;whiteSpace=wrap;html=1;" vertex="1" parent="87OqCBBtjAjnsFlcotj2-39">
          <mxGeometry height="540" as="geometry">
            <mxRectangle width="NaN" height="540" as="alternateBounds" />
          </mxGeometry>
        </mxCell>
        <mxCell id="MqVedQMIPtXj0oAbWhY8-2" style="edgeStyle=orthogonalEdgeStyle;rounded=0;orthogonalLoop=1;jettySize=auto;html=1;exitX=0.5;exitY=1;exitDx=0;exitDy=0;entryX=0.5;entryY=0;entryDx=0;entryDy=0;" edge="1" parent="1" source="87OqCBBtjAjnsFlcotj2-47" target="87OqCBBtjAjnsFlcotj2-53">
          <mxGeometry relative="1" as="geometry" />
        </mxCell>
        <mxCell id="87OqCBBtjAjnsFlcotj2-47" value="Monitoreo" style="rounded=1;whiteSpace=wrap;html=1;" vertex="1" parent="1">
          <mxGeometry x="428.25" y="190" width="91.75" height="40" as="geometry" />
        </mxCell>
        <mxCell id="MqVedQMIPtXj0oAbWhY8-9" style="edgeStyle=orthogonalEdgeStyle;rounded=0;orthogonalLoop=1;jettySize=auto;html=1;exitX=0.5;exitY=1;exitDx=0;exitDy=0;" edge="1" parent="1" source="87OqCBBtjAjnsFlcotj2-49" target="MqVedQMIPtXj0oAbWhY8-8">
          <mxGeometry relative="1" as="geometry" />
        </mxCell>
        <mxCell id="87OqCBBtjAjnsFlcotj2-49" value="Reacciona emergencia&amp;nbsp;" style="rounded=1;whiteSpace=wrap;html=1;" vertex="1" parent="1">
          <mxGeometry x="415" y="370" width="120" height="50" as="geometry" />
        </mxCell>
        <mxCell id="MqVedQMIPtXj0oAbWhY8-3" style="edgeStyle=orthogonalEdgeStyle;rounded=0;orthogonalLoop=1;jettySize=auto;html=1;exitX=1;exitY=0.5;exitDx=0;exitDy=0;entryX=1;entryY=0.5;entryDx=0;entryDy=0;" edge="1" parent="1" source="87OqCBBtjAjnsFlcotj2-53" target="87OqCBBtjAjnsFlcotj2-47">
          <mxGeometry relative="1" as="geometry" />
        </mxCell>
        <mxCell id="MqVedQMIPtXj0oAbWhY8-4" value="No" style="edgeLabel;html=1;align=center;verticalAlign=middle;resizable=0;points=[];" vertex="1" connectable="0" parent="MqVedQMIPtXj0oAbWhY8-3">
          <mxGeometry x="-0.9239" y="1" relative="1" as="geometry">
            <mxPoint as="offset" />
          </mxGeometry>
        </mxCell>
        <mxCell id="MqVedQMIPtXj0oAbWhY8-5" style="edgeStyle=orthogonalEdgeStyle;rounded=0;orthogonalLoop=1;jettySize=auto;html=1;exitX=0.5;exitY=1;exitDx=0;exitDy=0;" edge="1" parent="1" source="87OqCBBtjAjnsFlcotj2-53" target="87OqCBBtjAjnsFlcotj2-49">
          <mxGeometry relative="1" as="geometry" />
        </mxCell>
        <mxCell id="MqVedQMIPtXj0oAbWhY8-6" value="Si" style="edgeLabel;html=1;align=center;verticalAlign=middle;resizable=0;points=[];" vertex="1" connectable="0" parent="MqVedQMIPtXj0oAbWhY8-5">
          <mxGeometry x="-0.6348" y="1" relative="1" as="geometry">
            <mxPoint y="1" as="offset" />
          </mxGeometry>
        </mxCell>
        <mxCell id="87OqCBBtjAjnsFlcotj2-53" value="¿Existe amenaza?" style="rhombus;whiteSpace=wrap;html=1;" vertex="1" parent="1">
          <mxGeometry x="430" y="270" width="90" height="62.5" as="geometry" />
        </mxCell>
        <mxCell id="87OqCBBtjAjnsFlcotj2-68" value="" style="edgeStyle=orthogonalEdgeStyle;rounded=0;orthogonalLoop=1;jettySize=auto;html=1;" edge="1" parent="1" target="87OqCBBtjAjnsFlcotj2-67">
          <mxGeometry relative="1" as="geometry">
            <mxPoint x="530" y="480" as="sourcePoint" />
          </mxGeometry>
        </mxCell>
        <mxCell id="87OqCBBtjAjnsFlcotj2-72" value="" style="edgeStyle=orthogonalEdgeStyle;rounded=0;orthogonalLoop=1;jettySize=auto;html=1;" edge="1" parent="1" target="87OqCBBtjAjnsFlcotj2-71">
          <mxGeometry relative="1" as="geometry">
            <mxPoint x="300" y="450" as="sourcePoint" />
          </mxGeometry>
        </mxCell>
        <mxCell id="87OqCBBtjAjnsFlcotj2-76" value="" style="edgeStyle=orthogonalEdgeStyle;rounded=0;orthogonalLoop=1;jettySize=auto;html=1;" edge="1" parent="1" target="87OqCBBtjAjnsFlcotj2-75">
          <mxGeometry relative="1" as="geometry">
            <mxPoint x="125" y="450" as="sourcePoint" />
            <Array as="points">
              <mxPoint x="125" y="430" />
            </Array>
          </mxGeometry>
        </mxCell>
        <mxCell id="87OqCBBtjAjnsFlcotj2-81" value="" style="edgeStyle=orthogonalEdgeStyle;rounded=0;orthogonalLoop=1;jettySize=auto;html=1;" edge="1" parent="1" target="87OqCBBtjAjnsFlcotj2-80">
          <mxGeometry relative="1" as="geometry">
            <mxPoint x="300" y="530" as="sourcePoint" />
          </mxGeometry>
        </mxCell>
        <mxCell id="MqVedQMIPtXj0oAbWhY8-1" style="edgeStyle=orthogonalEdgeStyle;rounded=0;orthogonalLoop=1;jettySize=auto;html=1;exitX=0.5;exitY=1;exitDx=0;exitDy=0;exitPerimeter=0;entryX=0.5;entryY=0;entryDx=0;entryDy=0;" edge="1" parent="1" source="87OqCBBtjAjnsFlcotj2-95" target="87OqCBBtjAjnsFlcotj2-47">
          <mxGeometry relative="1" as="geometry" />
        </mxCell>
        <mxCell id="87OqCBBtjAjnsFlcotj2-95" value="" style="strokeWidth=2;html=1;shape=mxgraph.flowchart.start_2;whiteSpace=wrap;fillColor=#000000;" vertex="1" parent="1">
          <mxGeometry x="451.25" y="100" width="47.5" height="50" as="geometry" />
        </mxCell>
        <mxCell id="87OqCBBtjAjnsFlcotj2-106" value="" style="strokeWidth=2;html=1;shape=mxgraph.flowchart.start_2;whiteSpace=wrap;" vertex="1" parent="1">
          <mxGeometry x="80" y="555" width="60" height="60" as="geometry" />
        </mxCell>
        <mxCell id="87OqCBBtjAjnsFlcotj2-108" value="" style="strokeWidth=2;html=1;shape=mxgraph.flowchart.start_2;whiteSpace=wrap;fillColor=#000000;" vertex="1" parent="1">
          <mxGeometry x="86.25" y="560" width="47.5" height="50" as="geometry" />
        </mxCell>
        <mxCell id="MqVedQMIPtXj0oAbWhY8-13" value="" style="edgeStyle=orthogonalEdgeStyle;rounded=0;orthogonalLoop=1;jettySize=auto;html=1;" edge="1" parent="1" source="MqVedQMIPtXj0oAbWhY8-8" target="MqVedQMIPtXj0oAbWhY8-12">
          <mxGeometry relative="1" as="geometry" />
        </mxCell>
        <mxCell id="MqVedQMIPtXj0oAbWhY8-15" value="" style="edgeStyle=orthogonalEdgeStyle;rounded=0;orthogonalLoop=1;jettySize=auto;html=1;" edge="1" parent="1" source="MqVedQMIPtXj0oAbWhY8-8" target="MqVedQMIPtXj0oAbWhY8-14">
          <mxGeometry relative="1" as="geometry" />
        </mxCell>
        <mxCell id="MqVedQMIPtXj0oAbWhY8-8" value="Detiene el modulo" style="rounded=1;whiteSpace=wrap;html=1;" vertex="1" parent="1">
          <mxGeometry x="415" y="470" width="120" height="50" as="geometry" />
        </mxCell>
        <mxCell id="MqVedQMIPtXj0oAbWhY8-17" value="" style="edgeStyle=orthogonalEdgeStyle;rounded=0;orthogonalLoop=1;jettySize=auto;html=1;" edge="1" parent="1" source="MqVedQMIPtXj0oAbWhY8-14" target="MqVedQMIPtXj0oAbWhY8-16">
          <mxGeometry relative="1" as="geometry" />
        </mxCell>
        <mxCell id="MqVedQMIPtXj0oAbWhY8-19" value="" style="edgeStyle=orthogonalEdgeStyle;rounded=0;orthogonalLoop=1;jettySize=auto;html=1;exitX=0;exitY=0.5;exitDx=0;exitDy=0;" edge="1" parent="1" source="MqVedQMIPtXj0oAbWhY8-14" target="MqVedQMIPtXj0oAbWhY8-18">
          <mxGeometry relative="1" as="geometry">
            <mxPoint x="225" y="495" as="sourcePoint" />
          </mxGeometry>
        </mxCell>
        <mxCell id="MqVedQMIPtXj0oAbWhY8-14" value="Notifica al usuario" style="rounded=1;whiteSpace=wrap;html=1;" vertex="1" parent="1">
          <mxGeometry x="240" y="470" width="120" height="50" as="geometry" />
        </mxCell>
        <mxCell id="MqVedQMIPtXj0oAbWhY8-18" value="Visualiza notificación" style="rounded=1;whiteSpace=wrap;html=1;" vertex="1" parent="1">
          <mxGeometry x="50" y="470" width="120" height="50" as="geometry" />
        </mxCell>
        <mxCell id="MqVedQMIPtXj0oAbWhY8-21" style="edgeStyle=orthogonalEdgeStyle;rounded=0;orthogonalLoop=1;jettySize=auto;html=1;exitX=0.5;exitY=1;exitDx=0;exitDy=0;entryX=0.5;entryY=0;entryDx=0;entryDy=0;entryPerimeter=0;" edge="1" parent="1" source="MqVedQMIPtXj0oAbWhY8-18" target="87OqCBBtjAjnsFlcotj2-106">
          <mxGeometry relative="1" as="geometry" />
        </mxCell>
      </root>
    </mxGraphModel>
  </diagram>
</mxfile>
